<?xml version="1.0" encoding="UTF-8"?>
<svg id="logo_1" data-name="logo 1" xmlns="http://www.w3.org/2000/svg" viewBox="0 0 302.24 260.19">
  <defs>
    <style>
      .cls-1 {
        stroke: #0d1f40;
      }

      .cls-1, .cls-2, .cls-3 {
        fill: #0d1f40;
      }

      .cls-1, .cls-4, .cls-5 {
        stroke-miterlimit: 10;
      }

      .cls-2 {
        font-size: 29.74px;
      }

      .cls-2, .cls-3 {
        font-family: Pacifico-Regular, Pacifico;
      }

      .cls-6 {
        fill: #fff;
      }

      .cls-6, .cls-7, .cls-8, .cls-9 {
        stroke-width: 0px;
      }

      .cls-7 {
        fill: #c332ee;
      }

      .cls-10 {
        letter-spacing: 0em;
      }

      .cls-8 {
        fill: #fab13f;
      }

      .cls-9 {
        fill: #0238d9;
      }

      .cls-4 {
        fill: #d9e7f9;
        stroke: #d9e7f9;
      }

      .cls-5 {
        fill: #2b4268;
        stroke: #2b4268;
      }

      .cls-3 {
        font-size: 26px;
      }
    </style>
  </defs>
  <path class="cls-6" d="m266.05,135.08c.09,11.48-2.27,23.07-7.39,34.02-6.97,14.91-18.14,27.71-31.5,37.25-29.9,21.36-69.58,27.08-104.81,17.6-16.54-4.45-32.3-12.19-45.32-23.39-26.15-22.49-39.14-58.33-27.66-91.63,7.26-21.05,22.83-38.56,41.8-49.9,11.96-7.15,25.19-12.16,38.84-14.89,35.98-7.19,75.92,1.13,104.16,25.13,2.06,1.75,4.05,3.58,5.96,5.48,16.35,16.27,25.73,38.11,25.91,60.32Z"/>
  <path class="cls-9" d="m99.1,208.84c-27.17-10.69-46.64-32.96-48.99-62.7-1.3-16.41,1.17-33.36,8.27-48.3,5.55-10.57,13.49-19.77,22.88-27.11,37.56-29.4,93.19-34.26,134.63-10.16,24.62,14.15,45.1,39.9,44.57,69.37-.29,18.94-9.3,36.91-21.44,50.97,7.73-11.41,13.77-23.97,16.03-37.54,5.96-31.88-15.86-61.6-42.94-76.15-23.42-13.22-51.55-17-77.88-12.13-29.13,5.07-62.88,22.39-74.89,50.8-15.77,42.83-3.25,83.67,39.77,102.95h0Z"/>
  <path class="cls-5" d="m171.36,61.81s30.1,18.57-18.53,27.61v12.38s53.84-11.42,18.53-39.99Z"/>
  <path class="cls-1" d="m134.3,61.81s-30.1,18.57,18.53,27.61v12.38s-53.84-11.42-18.53-39.99Z"/>
  <path class="cls-8" d="m61.78,152.46c12.4,27.31,36.02,50.42,65.27,58.43,1.9.4,6.29,1.69,8.17,1.91,1.37.23,4.15.73,5.52.98,7.44.91,14.99,1.37,22.49,1.01,14.01-.47,28.61-3.35,42.21-6.77,3.69-1.05,7.39-2.09,11.14-3.07-13.93,6.64-28.81,11.61-44.29,13.91-23.3,3.76-48.25.74-68.68-11.62-20.14-12.14-35.55-32.14-41.84-54.77h0Z"/>
  <path class="cls-5" d="m152.88,146.29s78.12-24.84,31.79-81.88c0,0,38.82,39.71-31.84,53.79l.05,28.09Z"/>
  <path class="cls-1" d="m152.7,146.29s-78.12-24.84-31.79-81.88c0,0-38.82,39.71,31.84,53.79l-.05,28.09Z"/>
  <path class="cls-7" d="m84.25,82.78c26.79-27.48,72.78-33.49,107.9-20.21,24.53,9.11,44.94,29.67,52.26,54.98,7.7,24.97.94,54.02-17.83,72.26-9.11,9.12-20.51,15.57-32.51,19.36,11.52-5.06,22.11-12.19,30.24-21.5,35.47-41.18,13.85-100.11-34.61-118.77-34.07-13.07-76.35-9.04-105.44,13.88h0Z"/>
  <ellipse class="cls-4" cx="169.19" cy="126.91" rx="2.18" ry="1.79"/>
  <ellipse class="cls-4" cx="179.98" cy="121.59" rx="1.7" ry="1.4"/>
  <ellipse class="cls-4" cx="188.01" cy="114.79" rx="1.42" ry="1.17"/>
  <ellipse class="cls-4" cx="137.03" cy="128.02" rx="2.18" ry="1.79"/>
  <ellipse class="cls-4" cx="126.24" cy="121.64" rx="1.7" ry="1.4"/>
  <ellipse class="cls-4" cx="118.21" cy="114.84" rx="1.42" ry="1.17"/>
  <path class="cls-7" d="m60.62,118.64s.01-.06.02-.08c.2-1.26.4-2.51.61-3.77.02-.1.11-.17.24-.18,1.9-.26,3.81-.52,5.71-.78.11-.02.22-.03.34-.05.04,0,.09,0,.13.01.13.06.21.14.21.26,0,0,.02,0,.03.01l-.15.92s-.03,0-.03,0c0,.02-.01.05-.01.07-.19,1.19-.38,2.37-.57,3.56-.03.2-.15.38-.36.51-.3.2-.66.28-1.06.32-.32.03-.65,0-.96-.05-.53-.1-1.01-.28-1.32-.64-.25-.29-.25-.65.09-.93.2-.17.45-.27.75-.32.21-.03.43-.07.64-.07.22,0,.45.03.67.07.21.04.41.09.61.15.14.04.26.11.39.17.01,0,.02,0,.04,0,.08-.5.16-1,.24-1.51.04-.24.08-.48.11-.72,0,0,0,0-.01-.01-.16.02-.32.04-.48.06-1.58.21-3.16.43-4.74.65-.04,0-.07.01-.11.02,0,0-.01,0-.02.01-.04.22-.07.44-.11.67-.13.79-.26,1.58-.38,2.38-.05.37-.31.61-.73.76-.29.1-.59.15-.91.15-.24,0-.48,0-.71-.05-.52-.09-1-.27-1.33-.61-.22-.23-.27-.49-.14-.74.1-.19.3-.33.54-.43.26-.11.54-.16.84-.18.29-.02.58,0,.86.05.38.06.73.18,1.04.35,0,0,.01,0,.02-.01Zm6.57-4.32s0,0-.01-.01c0,0-.02,0-.03,0-.43.06-.85.12-1.28.18-1.34.18-2.68.37-4.01.55,0,0-.01,0-.02.01l-.12.75c.36-.05.71-.1,1.07-.15,1.41-.19,2.81-.39,4.22-.58.05,0,.07-.02.08-.05.03-.23.07-.46.11-.7Zm-7.85,5.48c.32,0,.62-.03.89-.15.11-.05.22-.11.26-.21.06-.15-.04-.26-.18-.36-.28-.2-.62-.29-.99-.34-.15-.02-.31-.02-.47-.02-.26,0-.5.05-.72.15-.12.06-.22.14-.23.26-.01.13.08.22.19.3.25.19.57.28.91.34.11.02.22.02.33.04Zm5.74-.85c.09,0,.19,0,.28.01.29.01.56-.02.82-.12.1-.04.21-.1.27-.17.12-.15.04-.29-.12-.41-.18-.14-.41-.23-.65-.29-.15-.04-.3-.06-.46-.08-.15-.01-.3-.01-.44,0-.29.02-.56.07-.77.23-.1.07-.14.21-.07.3.07.08.14.17.24.23.26.17.57.25.9.29Z"/>
  <path class="cls-7" d="m70.87,105.64c0-.06,0-.11,0-.16,0-2.51,0-5.02,0-7.52,0-.08,0-.16.03-.23.06-.14.24-.23.39-.21.31.04.39.17.41.33.06.44.13.88.37,1.28.14.22.32.43.52.62.32.31.68.6,1.01.91.34.32.68.65.91,1.04.19.32.31.66.39,1.02.06.28-.09.48-.22.7-.01.02-.06.05-.09.04-.02,0-.05-.04-.06-.07-.07-.63-.39-1.18-.86-1.68-.43-.46-.99-.79-1.67-.94-.09-.02-.17-.03-.28-.05,0,.06,0,.11,0,.16,0,1.84,0,3.69,0,5.53,0,.29-.04.56-.21.82-.23.35-.57.6-.97.81-.5.25-1.04.4-1.63.36-.52-.03-1.06-.27-1.22-.75-.1-.29-.02-.57.16-.82.4-.58,1.02-.95,1.79-1.15.34-.09.69-.08,1.05-.04.06,0,.12,0,.19,0Z"/>
  <path class="cls-7" d="m79.32,91.69c-.15-.06-.3-.11-.45-.17-.64-.27-1.12-.66-1.34-1.24-.1-.25-.11-.51-.03-.76.12-.35.36-.63.72-.86.44-.28.94-.4,1.48-.43.41-.03.82.04,1.22.14.42.11.79.28,1.12.51,0,0,.02,0,.04,0,.01-.04.02-.08.03-.13.63-2.51,1.26-5.02,1.89-7.53.05-.19.16-.34.39-.39.34-.07.7.15.68.46-.01.22.1.42.2.62.26.53.68.96,1.17,1.36.45.37.91.74,1.25,1.2.35.47.53.99.52,1.54,0,.19-.02.38-.06.57-.07.32-.22.62-.38.92-.23.41-.51.79-.88,1.13-.18.17-.39.32-.6.47-.21.14-.57.11-.72-.05-.22-.24-.19-.49.08-.67.52-.33.87-.76,1.15-1.25.17-.29.29-.6.33-.92.05-.34-.01-.67-.17-.98-.16-.32-.42-.59-.71-.84-.35-.31-.72-.61-1.07-.92-.18-.16-.33-.35-.5-.54-.01.05-.02.09-.03.13-.61,2.44-1.23,4.89-1.84,7.33-.11.45-.4.81-.87,1.05-.48.26-1.02.37-1.59.37-.1,0-.2,0-.3,0l-.72-.12Z"/>
  <path class="cls-7" d="m70.35,126.61c-.07,0-.15-.01-.22-.02-.32-.05-.59-.16-.78-.39-.08-.1-.13-.21-.13-.33,0-.16.05-.31.17-.45.14-.17.34-.27.57-.35.17-.06.36-.07.55-.07.2,0,.38.04.56.1,0,0,0,0,.02,0,0-.02,0-.04,0-.06-.13-1.15-.26-2.3-.39-3.45-.01-.09.01-.16.11-.21.13-.07.32-.01.37.12.03.1.11.17.19.24.2.2.45.34.72.46.25.11.51.22.73.38.23.17.38.37.47.61.03.08.05.17.06.25.02.15,0,.29-.02.44-.03.2-.09.4-.2.58-.05.09-.12.18-.18.27-.07.08-.23.11-.32.06-.13-.08-.16-.19-.07-.3.17-.2.25-.42.3-.66.03-.14.03-.29,0-.43-.03-.15-.11-.29-.23-.4-.12-.12-.28-.21-.44-.29-.2-.1-.41-.18-.61-.28-.1-.05-.2-.12-.3-.18,0,.02,0,.04,0,.06.13,1.12.25,2.24.38,3.36.02.21-.05.39-.21.55-.17.16-.38.27-.62.33-.04.01-.09.02-.13.03l-.33.03Z"/>
  <path class="cls-7" d="m90.42,96.13s-.02.06-.02.09c-.38,1.89-.76,3.79-1.14,5.68-.08.38-.29.72-.7.96-.33.2-.72.33-1.18.34-.21,0-.43,0-.64-.02-.46-.06-.85-.23-1.17-.47-.37-.28-.58-.61-.62-.98-.05-.45.15-.82.58-1.14.33-.24.74-.38,1.21-.42.33-.03.65.01.97.08.38.09.7.23.96.45.02.02.05.03.08.04l.49-2.45c-2.2.09-4.39.18-6.59.27l-.02.1c-.23,1.17-.47,2.35-.7,3.52-.07.35-.27.66-.64.9-.39.25-.85.38-1.4.38-.58,0-1.09-.13-1.52-.42-.42-.27-.66-.6-.74-.99-.04-.2-.01-.38.05-.56.1-.3.33-.56.68-.75.19-.11.39-.2.63-.25.24-.06.5-.08.76-.08.44.01.85.11,1.21.29.14.07.25.16.37.24.03.02.06.04.1.06l.02-.1c.29-1.46.58-2.91.87-4.37.01-.06.03-.09.14-.09.78-.03,1.56-.07,2.34-.11.58-.02,1.15-.04,1.73-.06.47-.02.94-.04,1.41-.06.62-.03,1.24-.05,1.86-.08.19,0,.38-.02.57-.03.02,0,.03,0,.05,0,0,0,0,.01,0,.02Z"/>
  <text class="cls-2" transform="translate(61.07 166.28) scale(1.09 1)"><tspan x="0" y="0">Harmony</tspan></text>
  <text class="cls-3" transform="translate(124.35 193.72) scale(1.09 1)"><tspan x="0" y="0">Vo</tspan><tspan class="cls-10" x="31.56" y="0">y</tspan><tspan x="43.76" y="0">ages</tspan></text>
  <path class="cls-7" d="m67.35,130.57s0,.03-.01.05c-.2,1.02-.41,2.04-.61,3.06-.04.21-.15.39-.38.52-.18.11-.39.18-.63.18-.12,0-.23,0-.35-.01-.25-.03-.46-.12-.63-.25-.2-.15-.31-.33-.34-.53-.03-.24.08-.44.31-.61.18-.13.4-.2.65-.23.18-.02.35,0,.52.05.2.05.38.13.52.24.01,0,.03.01.04.02l.26-1.32c-1.18.05-2.37.1-3.55.15v.05c-.14.63-.26,1.26-.39,1.9-.04.19-.15.36-.34.49-.21.13-.46.2-.75.21-.31,0-.59-.07-.82-.22-.22-.15-.36-.32-.4-.54-.02-.11,0-.21.03-.3.06-.16.18-.3.36-.41.1-.06.21-.11.34-.13.13-.03.27-.05.41-.04.24,0,.46.06.65.16.07.04.13.08.2.13.02,0,.03.02.05.03v-.06c.17-.79.33-1.57.48-2.36,0-.03.01-.05.08-.05.42-.01.84-.04,1.26-.06.31-.01.62-.02.93-.03.25-.01.51-.02.76-.03.33-.01.67-.03,1-.04.1,0,.21,0,.31-.01,0,0,.02,0,.03,0,0,0,0,0,0,0Z"/>
  <ellipse class="cls-6" cx="69.72" cy="107.01" rx="1.43" ry=".77" transform="translate(-34.21 32.78) rotate(-21.38)"/>
  <path class="cls-7" d="m73.98,137.11s0-.05,0-.07c0-1.11,0-2.23,0-3.34,0-.03,0-.07.01-.1.03-.06.11-.1.17-.09.14.02.17.08.18.15.03.2.06.39.16.57.06.1.14.19.23.28.14.14.3.27.45.41.15.14.3.29.4.46.09.14.14.3.17.45.03.12-.04.21-.1.31,0,0-.03.02-.04.02-.01,0-.02-.02-.02-.03-.03-.28-.17-.52-.38-.74-.19-.21-.44-.35-.74-.42-.04,0-.08-.01-.13-.02,0,.03,0,.05,0,.07,0,.82,0,1.64,0,2.46,0,.13-.02.25-.09.37-.1.16-.25.27-.43.36-.22.11-.46.18-.72.16-.23-.01-.47-.12-.54-.33-.04-.13,0-.25.07-.36.18-.26.45-.42.8-.51.15-.04.31-.04.46-.02.03,0,.05,0,.08,0Z"/>
  <ellipse class="cls-6" cx="73.46" cy="137.72" rx=".64" ry=".34" transform="translate(-45.15 36.26) rotate(-21.38)"/>
  <path class="cls-7" d="m76.89,107.75s.07.02.11.04c.13.05.2.14.22.25,0,.03,0,.06.01.09.26,2.05.52,4.1.78,6.15.04.28,0,.54-.19.77-.15.2-.36.35-.6.47-.21.1-.44.18-.68.21-.25.04-.51.05-.77.02-.37-.05-.72-.16-1-.37-.2-.15-.34-.33-.41-.55-.09-.31,0-.58.2-.84.24-.3.59-.47.99-.59.23-.06.46-.08.7-.08.31,0,.6.05.9.15,0-.04,0-.07-.01-.1-.22-1.77-.45-3.53-.67-5.3-.02-.15.06-.25.23-.31,0,0,.01-.01.02-.02.06,0,.11,0,.17-.01Z"/>
</svg>